# xmcd
#
# Track frame offsets:
#	150
#	11957
#	27877
#	42355
#	57380
#	72860
#	83370
#	96980
#	106750
#	123815
#	138522
#	150575
#
# Disc length: 2293 seconds
#
# Revision: 9
# Processed by: cddbd v1.5.2PL0 Copyright (c) Steve Scherf et al.
# Submitted via: audiograbber 1.83.01
#
DISCID=9308f30c
DTITLE=Emmylou Harris - Roses In The Snow
DYEAR=1980
DGENRE=Country
TTITLE0=Roses In The Snow
TTITLE1=Wayfaring Stranger
TTITLE2=Green Pastures - Feat. Ricky Skaggs
TTITLE3=The Boxer
TTITLE4=Darkest Hour Is Just Before Dawn - Feat. Ricky Skaggs
TTITLE5=I'll Go Stepping Too
TTITLE6=You're Learning - Feat. Ricky Skaggs
TTITLE7=Jordan - Feat. Ricky Skaggs, Tony Rice, Johnny Cash
TTITLE8=Miss The Mississippi
TTITLE9=Gold Watch And Chain - Feat. Ricky Skaggs and Linda Ronstadt
TTITLE10=You're Gonna Change
TTITLE11=Root Like A Rose
EXTD=Roses In The Snow (Remastered and Expanded]\n© 2002 Rhino/Warner Bros. Recor
EXTD=ds Inc.\n\nOriginallyegrass with traditional Appalachian melodies (and tos
EXTD=sing one contemporary tune, Paul Simon's "us tracks, "You're Gonna Change"
EXTD=and "Root Like a Rose."]  -- Jason Ankeny\n\n\nAmazon.com Edit Lee (mando
EXTD=lin), and Ricky Skaggs (fiddle), Harris wanders comfortably and warmly thr
EXTD=ough tradi the Stanley Brothers to the Louvin Brothers to Paul Simon. Amon
EXTD=g the set's peaks are Flatt and She spiritual "Jordan," with Harris, Skaggs,
EXTD=Rice, and Johnny Cash engaging in buoyant four-part the original 1980 alb
EXTD=um with two previously unreleased bonus tracks, 'You're Gonna Change' and 's
EXTD=Just Before Dawn', The Louvin Brothers' 'You're Learning', the Center Fam
EXTD=ily's 'Gold Watch and son \n\nProducer: Brian Ahern \n\nAlbum Notes\nPersonn
EXTD=el: Emmylou Harris (vocals, acoustic guitd, Barry Tashian (acoustic guitar
EXTD=) - Albert Lee (electric guitar, mandolin) - Brian Ahern (guitarharp) - Jim H
EXTD=orn (recorder, penny whistle) - Buck White (piano, background vocals) - Glen
EXTD=D. Hardis).\n\nRecorded in July 1979. \nOriginally released on Warner Bro
EXTD=thers (3422). \nIncludes linero (07/1979).\nPhotographer: Robert Matheu.\n
EXTD=Arranger: Brian Ahern.\n\nOn her sixth country albually been the exclusive
EXTD=domain of men (Hazel Dickens being the most notable exception to the ruby
EXTD=assembling an all-star supporting cast including Ricky Skaggs, Tony Rice,
EXTD=Jerry Douglas, andbluegrass here, reworking numbers associated with Ralph
EXTD=Stanley ("The Darkest Hour is Just Befolivers on, A.P. Carter's "Gold Wat
EXTD=ch and Chain" and Bill Halley's "Miss the Mississippi and Youraculously re
EXTD=cast as a bluegrass-friendly number.\n\nIndustry Reviews\n4 stars out of 5
EXTD=...anves its best treatment in years...  Q (04/01/2000]\n\n...As green 
EXTD=as an Appalachian mountain va Carter intended, the uptempo title track bot
EXTD=h swings and seduces and 'Miss The Mississippi Andxcursion...  Q (04/01/20
EXTD=00]\n\n\nAMAZON.COM CUSTOMER REVIEW\nNo mechanical bull references hereo 5
EXTD=". The old "country" sound of the 1960s and 1970s was giving way to a new 
EXTD="country" sound th trend, in fact she seems to have fled from it. In 1980 
EXTD=she and the band left the electric guitrom the first ripping fiddle notes 
EXTD=that open the title track the album takes you in with its sosimply dumbstr
EXTD=uck. Being relatively new to "country music" (I hate categorizing music) I
EXTD=wonderdifferent from Harris' previous album "Blue Kentucky Girl" which te
EXTD=nds toward electrified counten Pastures", "Jordan"), sometimes hopeful ("T
EXTD=he Darkest Hour is Just Before Dawn"). It is also incredibly well. There a
EXTD=re no duds on this album, only great and greater songs.\n\nThe CD book not
EXTD=a follower.\n\n\nAMAZON.COM CUSTOMER REVIEW\nThe HOTTEST Version of Emmyl
EXTD=ou's "Hot Band",  have been members. The Hot Band was never hotter than on
EXTD=this beautiful album. Albert Lee is oee's electric. Ricky Skaggs adds his
EXTD=fine mandolin and fiddle work. Dobro King Jerry Douglas adis recording is
EXTD=every bit as good as ANY of the "Will the Circle be Unbroken" albums, but
EXTD=it istanley, the Louvin Brothers and Simon and Garfunkle's songs never so
EXTD=unded so good.\n\nGet it. \nrris decided to make an all-bluegrass album at
EXTD=the height of the "urban cowboy" craze, folks int song after another as w
EXTD=ell as invaluable assistance from David Grisman Quintet alumnus Tony Rxer"
EXTD=- are the least of this album's charms. What's really delightful are the
EXTD=bouncy title traGreen Pastures") and Ricky Skaggs ("The Darkest Hour"). R
EXTD=ight after this album came out, Skaggsis a very fun, very listenable album
EXTD=Highly recommended! (The 2002 re-release features a couian Ahearn's si
EXTD=ster Nancy.) 
EXTT0=
EXTT1=
EXTT2=
EXTT3=
EXTT4=
EXTT5=
EXTT6=
EXTT7=
EXTT8=
EXTT9=
EXTT10=
EXTT11=
PLAYORDER=
